<svg width="14" height="20" viewBox="0 0 14 20" fill="none" xmlns="http://www.w3.org/2000/svg">
<path d="M3.24512 3.75V10C3.24512 12.0703 4.9248 13.75 6.99512 13.75C9.06543 13.75 10.7451 12.0703 10.7451 10H7.62012C7.27637 10 6.99512 9.71875 6.99512 9.375C6.99512 9.03125 7.27637 8.75 7.62012 8.75H10.7451V7.5H7.62012C7.27637 7.5 6.99512 7.21875 6.99512 6.875C6.99512 6.53125 7.27637 6.25 7.62012 6.25H10.7451V5H7.62012C7.27637 5 6.99512 4.71875 6.99512 4.375C6.99512 4.03125 7.27637 3.75 7.62012 3.75H10.7451C10.7451 1.67969 9.06543 0 6.99512 0C4.9248 0 3.24512 1.67969 3.24512 3.75ZM11.9951 9.375V10C11.9951 12.7617 9.75684 15 6.99512 15C4.2334 15 1.99512 12.7617 1.99512 10V8.4375C1.99512 7.91797 1.57715 7.5 1.05762 7.5C0.538086 7.5 0.120117 7.91797 0.120117 8.4375V10C0.120117 13.4805 2.70605 16.3555 6.05762 16.8125V18.125H4.18262C3.66309 18.125 3.24512 18.543 3.24512 19.0625C3.24512 19.582 3.66309 20 4.18262 20H6.99512H9.80762C10.3271 20 10.7451 19.582 10.7451 19.0625C10.7451 18.543 10.3271 18.125 9.80762 18.125H7.93262V16.8125C11.2842 16.3555 13.8701 13.4805 13.8701 10V8.4375C13.8701 7.91797 13.4521 7.5 12.9326 7.5C12.4131 7.5 11.9951 7.91797 11.9951 8.4375V9.375Z" fill="#C4CDD5"/>
</svg>
