<svg width="18" height="14" viewBox="0 0 18 14" fill="none" xmlns="http://www.w3.org/2000/svg">
<path d="M0.666748 1.79167C0.666748 1.21549 1.13224 0.75 1.70841 0.75H14.2084C14.7846 0.75 15.2501 1.21549 15.2501 1.79167C15.2501 2.36784 14.7846 2.83333 14.2084 2.83333H1.70841C1.13224 2.83333 0.666748 2.36784 0.666748 1.79167ZM2.75008 7C2.75008 6.42383 3.21558 5.95833 3.79175 5.95833H16.2917C16.8679 5.95833 17.3334 6.42383 17.3334 7C17.3334 7.57617 16.8679 8.04167 16.2917 8.04167H3.79175C3.21558 8.04167 2.75008 7.57617 2.75008 7ZM15.2501 12.2083C15.2501 12.7845 14.7846 13.25 14.2084 13.25H1.70841C1.13224 13.25 0.666748 12.7845 0.666748 12.2083C0.666748 11.6322 1.13224 11.1667 1.70841 11.1667H14.2084C14.7846 11.1667 15.2501 11.6322 15.2501 12.2083Z" fill="black"/>
</svg>
